<svg version="1.1" xmlns="http://www.w3.org/2000/svg" xmlns:xlink="http://www.w3.org/1999/xlink" width="38.49942" height="38.49942" viewBox="0,0,38.49942,38.49942"><defs><radialGradient cx="240" cy="135" r="19.24971" gradientUnits="userSpaceOnUse" id="color-1"><stop offset="0" stop-color="#000000"/><stop offset="1" stop-color="#000000" stop-opacity="0"/></radialGradient><linearGradient x1="253.39879" y1="135.00001" x2="226.6012" y2="135.00001" gradientUnits="userSpaceOnUse" id="color-2"><stop offset="0" stop-color="#555555"/><stop offset="1" stop-color="#383838"/></linearGradient></defs><g transform="translate(-220.75029,-115.75029)"><g stroke-miterlimit="10"><path d="M259.24971,135c0,10.63132 -8.61839,19.24971 -19.24971,19.24971c-10.63132,0 -19.24971,-8.61839 -19.24971,-19.24971c0,-10.63132 8.61839,-19.24971 19.24971,-19.24971c10.63132,0 19.24971,8.61839 19.24971,19.24971z" fill="url(#color-1)" stroke="none" stroke-width="NaN"/><path d="M240,121.4754c7.39995,0 13.39879,6.05517 13.39879,13.5246c0,7.46943 -5.99884,13.5246 -13.39879,13.5246c-7.39995,0 -13.39879,-6.05517 -13.39879,-13.5246c0,-7.46943 5.99885,-13.5246 13.39879,-13.5246z" fill="#383838" stroke="url(#color-2)" stroke-width="3"/><text transform="translate(233.44153,140.67014) scale(0.47252,0.47252)" font-size="40" xml:space="preserve" fill="#ffffff" stroke="#ffffff" stroke-width="3" font-family="Handwriting" font-weight="normal" text-anchor="start"><tspan x="0" dy="0">B</tspan></text></g></g></svg>