<svg version="1.1" xmlns="http://www.w3.org/2000/svg" xmlns:xlink="http://www.w3.org/1999/xlink" width="19.70912" height="17.00212" viewBox="0,0,19.70912,17.00212"><defs><linearGradient x1="240.00054" y1="127.79076" x2="240.00054" y2="142.79288" gradientUnits="userSpaceOnUse" id="color-1"><stop offset="0" stop-color="#00e0b5"/><stop offset="1" stop-color="#b200e0"/></linearGradient><linearGradient x1="232.20821" y1="130.29043" x2="232.20821" y2="136.59739" gradientUnits="userSpaceOnUse" id="color-2"><stop offset="0" stop-color="#00e0b5"/><stop offset="1" stop-color="#6d58d0"/></linearGradient><linearGradient x1="240" y1="132.39286" x2="240" y2="137.60716" gradientUnits="userSpaceOnUse" id="color-3"><stop offset="0" stop-color="#00e0b5"/><stop offset="1" stop-color="#bb6de0"/></linearGradient></defs><g transform="translate(-229.08375,-126.79075)"><g stroke-miterlimit="10"><path d="M232.20713,135c0,-4.30389 3.48898,-7.79287 7.79287,-7.79287c4.30389,0 7.79287,3.48898 7.79287,7.79287c0,4.30389 -3.48898,7.79287 -7.79287,7.79287c-4.30389,0 -7.79287,-3.48898 -7.79287,-7.79287z" fill="#ffffff" stroke="none" stroke-width="0"/><path d="M242.96437,127.79076c2.83363,1.16641 4.8285,3.95486 4.8285,7.20925c0,4.30389 -3.48898,7.79287 -7.79287,7.79287c-4.26019,0 -7.72193,-3.41848 -7.79179,-7.66201" fill="none" stroke="url(#color-1)" stroke-width="2"/><path d="M229.08375,135.28237c0,-1.72559 0.64708,-3.68024 3.12446,-4.99194c2.44386,1.22105 3.12446,3.19452 3.12446,4.92012c0,1.72559 -1.39887,1.32879 -3.12446,1.32879c-1.72559,0 -3.12446,0.46863 -3.12446,-1.25697z" fill="url(#color-2)" stroke="none" stroke-width="0"/><path d="M237.39285,135c0,-1.43989 1.16726,-2.60715 2.60715,-2.60715c1.43989,0 2.60715,1.16726 2.60715,2.60715c0,1.43989 -1.16726,2.60715 -2.60715,2.60715c-1.43989,0 -2.60715,-1.16726 -2.60715,-2.60715z" fill="url(#color-3)" stroke="none" stroke-width="0"/></g></g></svg>