<svg version="1.1" xmlns="http://www.w3.org/2000/svg" xmlns:xlink="http://www.w3.org/1999/xlink" width="54.5693" height="54.5693" viewBox="0,0,54.5693,54.5693"><defs><radialGradient cx="240" cy="135" r="27.28465" gradientUnits="userSpaceOnUse" id="color-1"><stop offset="0" stop-color="#000000"/><stop offset="1" stop-color="#000000" stop-opacity="0"/></radialGradient><linearGradient x1="258.99152" y1="135.00001" x2="221.00846" y2="135.00001" gradientUnits="userSpaceOnUse" id="color-2"><stop offset="0" stop-color="#555555"/><stop offset="1" stop-color="#383838"/></linearGradient><linearGradient x1="231.11217" y1="136.90137" x2="252.69058" y2="136.90137" gradientUnits="userSpaceOnUse" id="color-3"><stop offset="0" stop-color="#ff7a00"/><stop offset="1" stop-color="#ff0000"/></linearGradient><linearGradient x1="248.88782" y1="136.90137" x2="227.30942" y2="136.90137" gradientUnits="userSpaceOnUse" id="color-4"><stop offset="0" stop-color="#ff7a00"/><stop offset="1" stop-color="#ff0000"/></linearGradient></defs><g transform="translate(-212.71535,-107.71535)"><g stroke-miterlimit="10"><path d="M267.28465,135c0,15.06889 -12.21576,27.28465 -27.28465,27.28465c-15.06889,0 -27.28465,-12.21576 -27.28465,-27.28465c0,-15.06889 12.21576,-27.28465 27.28465,-27.28465c15.06889,0 27.28465,12.21576 27.28465,27.28465z" fill="url(#color-1)" stroke="none" stroke-width="NaN" stroke-linecap="butt"/><path d="M240,115.83015c10.48873,0 18.99152,8.58263 18.99152,19.16985c0,10.58721 -8.50279,19.16985 -18.99152,19.16985c-10.48873,0 -18.99152,-8.58263 -18.99152,-19.16985c0,-10.58721 8.5028,-19.16985 18.99152,-19.16985z" fill="#383838" stroke="url(#color-2)" stroke-width="3" stroke-linecap="butt"/><path d="M231.11217,126.11217l17.77565,17.77565" fill="none" stroke="url(#color-3)" stroke-width="6" stroke-linecap="round"/><path d="M231.11217,143.88782l17.77565,-17.77565" fill="none" stroke="url(#color-4)" stroke-width="6" stroke-linecap="round"/></g></g></svg>