<svg version="1.1" xmlns="http://www.w3.org/2000/svg" xmlns:xlink="http://www.w3.org/1999/xlink" width="19.24051" height="19.24051" viewBox="0,0,19.24051,19.24051"><defs><radialGradient cx="239.93671" cy="177.15612" r="9.62025" gradientUnits="userSpaceOnUse" id="color-1"><stop offset="0" stop-color="#ff0000" stop-opacity="0.47451"/><stop offset="1" stop-color="#ff0000" stop-opacity="0"/></radialGradient><linearGradient x1="239.7264" y1="173.79195" x2="239.7264" y2="182.89061" gradientUnits="userSpaceOnUse" id="color-2"><stop offset="0" stop-color="#ff0000" stop-opacity="0"/><stop offset="1" stop-color="#ff0000" stop-opacity="0.67059"/></linearGradient><linearGradient x1="240" y1="177.15612" x2="240" y2="182.84388" gradientUnits="userSpaceOnUse" id="color-3"><stop offset="0" stop-color="#ff0000"/><stop offset="1" stop-color="#c40000"/></linearGradient></defs><g transform="translate(-230.31646,-167.53587)"><g stroke-miterlimit="10"><path d="M230.31646,177.15612c0,-5.31312 4.30713,-9.62025 9.62025,-9.62025c5.31312,0 9.62025,4.30713 9.62025,9.62025c0,5.31312 -4.30713,9.62025 -9.62025,9.62025c-5.31312,0 -9.62025,-4.30713 -9.62025,-9.62025z" fill="url(#color-1)" stroke="none" stroke-width="1.5"/><path d="M237.05161,182.63247c0,0 -3.89477,-9.22765 -0.94654,-7.24861c1.60716,1.07883 1.42239,1.07561 1.90965,0.60234c0.23944,-0.23257 1.08672,-4.71603 1.72767,-4.60558c0.87511,0.1508 1.73141,4.16171 2.31377,4.6562c0.49649,0.42157 0.81313,-0.39449 2.066,-0.95413c2.40979,-1.07642 -1.764,7.85095 -1.764,7.85095z" fill="url(#color-2)" stroke="none" stroke-width="0"/><path d="M248.48039,180c0,1.57063 -3.7968,2.84388 -8.48039,2.84388c-4.68359,0 -8.48039,-1.27325 -8.48039,-2.84388c0,-1.57063 3.7968,-2.84388 8.48039,-2.84388c4.68359,0 8.48039,1.27325 8.48039,2.84388z" fill="none" stroke="url(#color-3)" stroke-width="1.5"/></g></g></svg>