<svg version="1.1" xmlns="http://www.w3.org/2000/svg" xmlns:xlink="http://www.w3.org/1999/xlink" width="37.26328" height="37.26328" viewBox="0,0,37.26328,37.26328"><defs><radialGradient cx="240" cy="135" r="18.63164" gradientUnits="userSpaceOnUse" id="color-1"><stop offset="0" stop-color="#000000"/><stop offset="1" stop-color="#000000" stop-opacity="0"/></radialGradient><linearGradient x1="252.96858" y1="135.00001" x2="227.03141" y2="135.00001" gradientUnits="userSpaceOnUse" id="color-2"><stop offset="0" stop-color="#555555"/><stop offset="1" stop-color="#383838"/></linearGradient></defs><g transform="translate(-221.36836,-116.36836)"><g stroke-miterlimit="10"><path d="M258.63164,135c0,10.28997 -8.34167,18.63164 -18.63164,18.63164c-10.28997,0 -18.63164,-8.34167 -18.63164,-18.63164c0,-10.28997 8.34167,-18.63164 18.63164,-18.63164c10.28997,0 18.63164,8.34167 18.63164,18.63164z" fill="url(#color-1)" stroke="none" stroke-width="NaN"/><path d="M240,121.90965c7.16236,0 12.96858,5.86075 12.96858,13.09035c0,7.2296 -5.80623,13.09035 -12.96858,13.09035c-7.16236,0 -12.96858,-5.86075 -12.96858,-13.09035c0,-7.2296 5.80623,-13.09035 12.96858,-13.09035z" fill="#383838" stroke="url(#color-2)" stroke-width="3"/><text transform="translate(233.65211,140.48808) scale(0.45734,0.45734)" font-size="40" xml:space="preserve" fill="#ffffff" stroke="#ffffff" stroke-width="3" font-family="Handwriting" font-weight="normal" text-anchor="start"><tspan x="0" dy="0">E</tspan></text></g></g></svg>