<svg version="1.1" xmlns="http://www.w3.org/2000/svg" xmlns:xlink="http://www.w3.org/1999/xlink" width="52.50906" height="52.50906" viewBox="0,0,52.50906,52.50906"><defs><radialGradient cx="240" cy="135" r="26.25453" gradientUnits="userSpaceOnUse" id="color-1"><stop offset="0" stop-color="#000000"/><stop offset="1" stop-color="#000000" stop-opacity="0"/></radialGradient><linearGradient x1="239.99999" y1="153.10453" x2="239.99999" y2="116.89551" gradientUnits="userSpaceOnUse" id="color-2"><stop offset="0" stop-color="#555555"/><stop offset="1" stop-color="#383838"/></linearGradient></defs><g transform="translate(-213.74547,-108.74547)"><g stroke-miterlimit="10"><path d="M266.25453,135c0,14.49997 -11.75455,26.25453 -26.25453,26.25453c-14.49997,0 -26.25453,-11.75455 -26.25453,-26.25453c0,-14.49997 11.75455,-26.25453 26.25453,-26.25453c14.49997,0 26.25453,11.75455 26.25453,26.25453z" fill="url(#color-1)" stroke="none" stroke-width="NaN" stroke-linecap="butt"/><g><path d="M258.2745,135.00002c0,9.99885 -8.18178,18.1045 -18.27451,18.1045c-10.09273,0 -18.2745,-8.10568 -18.2745,-18.10453c0,-9.99885 8.18177,-18.10451 18.2745,-18.10451c10.09273,0 18.27451,8.10566 18.27451,18.10451z" fill="#383838" stroke="url(#color-2)" stroke-width="3" stroke-linecap="butt"/><path d="M240.32709,135.00002h-7.90221" fill="none" stroke="#ffffff" stroke-width="10" stroke-linecap="round"/><g fill="#ffffff" stroke="#ffffff" stroke-width="3" stroke-linecap="round"><path d="M240.07325,123.57134l0,22.85737"/><path d="M251.54633,134.98207l-11.27562,-11.27562"/><path d="M251.54633,135.12662l-11.2756,11.27563"/></g><path d="M251.59216,135.21687l-11.56473,10.26371v-20.9611z" fill="#ffffff" stroke="#ffffff" stroke-width="0" stroke-linecap="butt"/></g></g></g></svg>