<svg version="1.1" xmlns="http://www.w3.org/2000/svg" xmlns:xlink="http://www.w3.org/1999/xlink" width="31.84428" height="32.11512" viewBox="0,0,31.84428,32.11512"><defs><linearGradient x1="254.42214" y1="135.00001" x2="225.57785" y2="135.00001" gradientUnits="userSpaceOnUse" id="color-1"><stop offset="0" stop-color="#555555"/><stop offset="1" stop-color="#383838"/></linearGradient></defs><g transform="translate(-224.07785,-118.94244)"><g stroke-miterlimit="10"><path d="M240,120.44244c7.96513,0 14.42214,6.51764 14.42214,14.55756c0,8.03992 -6.45701,14.55756 -14.42214,14.55756c-7.96513,0 -14.42214,-6.51764 -14.42214,-14.55756c0,-8.03992 6.45701,-14.55756 14.42214,-14.55756z" fill="#383838" stroke="url(#color-1)" stroke-width="3" stroke-linecap="butt"/><path d="M234.94168,135c0,-2.79363 2.26469,-5.05832 5.05832,-5.05832c2.79363,0 5.05832,2.26469 5.05832,5.05832c0,2.79363 -2.26469,5.05832 -5.05832,5.05832c-2.79363,0 -5.05832,-2.26469 -5.05832,-5.05832z" fill="none" stroke="#ffffff" stroke-width="5" stroke-linecap="butt"/><g fill="none" stroke="#ffffff" stroke-width="4" stroke-linecap="round"><path d="M245.90909,135h2.81819"/><path d="M231.27272,135h2.81818"/></g><g fill="none" stroke="#ffffff" stroke-width="4" stroke-linecap="round"><path d="M240,129.09091v-2.81819"/><path d="M240,143.72728v-2.81818"/></g><g fill="none" stroke="#ffffff" stroke-width="4" stroke-linecap="round"><path d="M244.17836,139.17836l1.99275,1.99275"/><path d="M233.82888,128.82889l1.99275,1.99275"/></g><g fill="none" stroke="#ffffff" stroke-width="4" stroke-linecap="round"><path d="M244.17836,130.82164l1.99275,-1.99275"/><path d="M233.82888,141.17111l1.99275,-1.99275"/></g></g></g></svg>